<svg width="33" height="32" viewBox="0 0 33 32" fill="none" xmlns="http://www.w3.org/2000/svg">
<g clip-path="url(#clip0_551_5232)">
<path d="M19.7532 10.6496L16.666 13.7367L15.4539 12.5246C15.0879 12.1585 14.4942 12.1585 14.1281 12.5246C13.762 12.8907 13.762 13.4843 14.1281 13.8504L16.0031 15.7254C16.3692 16.0915 16.9628 16.0916 17.3289 15.7254L21.0789 11.9754C21.445 11.6093 21.445 11.0157 21.0789 10.6496C20.7129 10.2835 20.1192 10.2835 19.7532 10.6496Z" fill="#E44332"/>
<path d="M31.7285 10.375H29.8535C29.3358 10.375 28.916 10.7947 28.916 11.3125C28.916 11.8303 29.3358 12.25 29.8535 12.25H31.7285C32.2463 12.25 32.666 11.8303 32.666 11.3125C32.666 10.7947 32.2463 10.375 31.7285 10.375Z" fill="#E44332"/>
<path d="M4.41602 11.3125C4.41602 10.7947 3.99627 10.375 3.47852 10.375H1.60352C1.08577 10.375 0.666016 10.7947 0.666016 11.3125C0.666016 11.8303 1.08577 12.25 1.60352 12.25H3.47852C3.99627 12.25 4.41602 11.8303 4.41602 11.3125Z" fill="#E44332"/>
<path d="M28.5021 5.56203L30.1259 4.62453C30.5743 4.36566 30.7279 3.79228 30.469 3.34391C30.2101 2.89553 29.6368 2.74184 29.1884 3.00078L27.5646 3.93828C27.1162 4.19716 26.9626 4.77053 27.2215 5.21891C27.4816 5.66953 28.0558 5.81972 28.5021 5.56203Z" fill="#E44332"/>
<path d="M4.83097 17.0633L3.20716 18.0008C2.75879 18.2597 2.60516 18.833 2.86404 19.2814C3.12422 19.732 3.69841 19.8822 4.14466 19.6245L5.76847 18.687C6.21685 18.4282 6.37047 17.8548 6.1116 17.4064C5.85272 16.958 5.27941 16.8043 4.83097 17.0633Z" fill="#E44332"/>
<path d="M30.1259 18.0008L28.5021 17.0633C28.0536 16.8043 27.4803 16.958 27.2215 17.4064C26.9626 17.8548 27.1162 18.4282 27.5646 18.6871L29.1884 19.6246C29.6348 19.8824 30.2091 19.7318 30.469 19.2814C30.728 18.833 30.5743 18.2597 30.1259 18.0008Z" fill="#E44332"/>
<path d="M5.76847 3.93832L4.14466 3.00082C3.69622 2.74182 3.12285 2.89551 2.86404 3.34395C2.60516 3.79232 2.75879 4.3657 3.20716 4.62457L4.83097 5.56207C5.27735 5.81989 5.85166 5.66926 6.1116 5.21895C6.37047 4.77051 6.21685 4.1972 5.76847 3.93832Z" fill="#E44332"/>
<path d="M14.4522 1.23104C10.4051 2.07629 7.21314 5.39654 6.50939 9.49304C5.82127 13.4986 7.44345 17.4265 10.743 19.7439C11.4298 20.2263 11.8603 20.8991 11.9571 21.6249H10.6001C10.0823 21.6249 9.66258 22.0446 9.66258 22.5624C9.66258 23.0801 10.0823 23.4999 10.6001 23.4999H11.9779V25.3749H11.0487C10.531 25.3749 10.1112 25.7946 10.1112 26.3124C10.1112 26.8301 10.531 27.2499 11.0487 27.2499H12.0722C12.5077 29.3869 14.4016 30.9999 16.6654 30.9999C18.9291 30.9999 20.8231 29.3869 21.2586 27.2499H22.2904C22.8081 27.2499 23.2279 26.8301 23.2279 26.3124C23.2279 25.7946 22.8081 25.3749 22.2904 25.3749H21.3529V23.4999H22.7065C23.2243 23.4999 23.644 23.0801 23.644 22.5624C23.644 22.0446 23.2243 21.6249 22.7065 21.6249H21.3901C21.5146 20.8786 21.9563 20.1942 22.6461 19.7026C25.3586 17.7695 26.9779 14.633 26.9779 11.3124C26.9779 4.81298 21.0281 -0.142397 14.4522 1.23104ZM16.6654 29.1249C15.4432 29.1249 14.4011 28.341 14.0141 27.2499H19.3166C18.9296 28.341 17.8876 29.1249 16.6654 29.1249ZM19.4779 25.3749H13.8529V23.4999H19.4779V25.3749ZM21.558 18.1757C20.3624 19.0277 19.6281 20.267 19.4986 21.6249H13.841C13.7432 20.2828 13.0193 19.0514 11.8205 18.2095C9.12014 16.3129 7.79308 13.0945 8.35727 9.81048C8.93183 6.46592 11.5352 3.75573 14.8355 3.06648C20.2219 1.94154 25.1029 5.97817 25.1029 11.3124C25.1029 14.028 23.7777 16.5937 21.558 18.1757Z" fill="#E44332"/>
</g>
<defs>
<clipPath id="clip0_551_5232">
<rect width="32" height="32" fill="white" transform="translate(0.666016)"/>
</clipPath>
</defs>
</svg>
