<svg width="32" height="32" viewBox="0 0 32 32" fill="none" xmlns="http://www.w3.org/2000/svg">
<path d="M31.8499 29.492L22.8506 15.493C22.6735 15.2174 22.3669 15.0546 22.0376 15.0628C21.71 15.0714 21.4107 15.2504 21.2481 15.5348L18.4655 20.4045L12.8752 10.7485V7.93799H17.9374C18.2925 7.93799 18.6171 7.73738 18.7758 7.41978C18.9346 7.10218 18.9004 6.72214 18.6873 6.4381L17.6093 5.0007L18.6873 3.5633C18.9004 3.27926 18.9346 2.89922 18.7758 2.58162C18.6171 2.26402 18.2925 2.06341 17.9374 2.06341H12.8752V2.00091C12.8752 1.4832 12.4555 1.06348 11.9378 1.06348C11.4201 1.06348 11.0004 1.4832 11.0004 2.00091V10.7485L0.12724 29.5292C-0.234109 30.1534 0.217297 30.9364 0.938496 30.9364H31.0614C31.802 30.9364 32.2505 30.1149 31.8499 29.492ZM12.8752 3.93827H16.0624L15.6875 4.43824C15.4375 4.77153 15.4375 5.22987 15.6875 5.56316L16.0624 6.06312H12.8752V3.93827ZM11.9377 12.8713L14.7648 17.7544L14.0001 18.3279L12.5627 17.2498C12.2293 16.9999 11.7711 16.9999 11.4378 17.2498L9.9918 18.3343L9.13542 17.7116L11.9377 12.8713ZM2.56444 29.0615L8.19105 19.3429L9.44902 20.2578C9.78156 20.4997 10.2335 20.4967 10.5628 20.2496L12.0002 19.1716L13.4376 20.2496C13.771 20.4996 14.2292 20.4996 14.5625 20.2496L15.7108 19.3884L21.3111 29.0615H2.56444ZM23.4775 29.0615L19.5522 22.2816L22.1093 17.8069L29.3444 29.0615H23.4775Z" fill="#E44332"/>
</svg>
