<svg width="32" height="32" viewBox="0 0 32 32" fill="none" xmlns="http://www.w3.org/2000/svg">
<g clip-path="url(#clip0_558_5279)">
<path d="M31.1753 10.0704C30.0787 8.97381 28.2944 8.97388 27.1975 10.0707C26.8601 10.4084 24.706 12.5642 24.377 12.8936V5.46413C24.377 4.71288 24.0844 4.00662 23.5531 3.47544L20.9016 0.82375C20.3704 0.2925 19.6641 0 18.9128 0H2.81445C1.26364 0 0.00195312 1.26169 0.00195312 2.8125V29.1875C0.00195312 30.7383 1.26364 32 2.81445 32H21.5645C23.1153 32 24.377 30.7383 24.377 29.1875V20.8519L31.1752 14.0479C32.2744 12.9488 32.2746 11.1697 31.1753 10.0704ZM18.752 1.875C18.9291 1.875 19.2705 1.84431 19.5758 2.14956L22.2274 4.80125C22.5249 5.09881 22.502 5.42487 22.502 5.625H18.752V1.875ZM22.502 29.1875C22.502 29.7044 22.0815 30.125 21.5645 30.125H2.81445C2.29752 30.125 1.87695 29.7044 1.87695 29.1875V2.8125C1.87695 2.29556 2.29752 1.875 2.81445 1.875H16.877V6.5625C16.877 7.08025 17.2967 7.5 17.8145 7.5H22.502V14.7702C22.502 14.7702 19.7361 17.5384 19.736 17.5385L18.4108 18.8638C18.3079 18.9666 18.2303 19.0921 18.1843 19.2302L16.8584 23.2077C16.7461 23.5446 16.8338 23.916 17.0849 24.1671C17.3363 24.4185 17.7079 24.5058 18.0443 24.3936L22.0218 23.0678C22.1598 23.0218 22.2853 22.9442 22.3882 22.8412L22.502 22.7275V29.1875ZM20.3995 19.5267L21.7253 20.8525L21.2188 21.3589L19.2301 22.0218L19.893 20.0331L20.3995 19.5267ZM23.0508 19.5264L21.725 18.2006C22.431 17.494 25.5666 14.3558 26.2316 13.6902L27.5574 15.016L23.0508 19.5264ZM29.8491 12.7224L28.8827 13.6896L27.5569 12.3638L28.5236 11.3962C28.8894 11.0307 29.484 11.0307 29.8495 11.3962C30.215 11.7619 30.2169 12.3546 29.8491 12.7224Z" fill="#0D85DB"/>
<path d="M17.8145 9.375H4.68945C4.1717 9.375 3.75195 9.79475 3.75195 10.3125C3.75195 10.8303 4.1717 11.25 4.68945 11.25H17.8145C18.3322 11.25 18.752 10.8303 18.752 10.3125C18.752 9.79475 18.3322 9.375 17.8145 9.375Z" fill="#0D85DB"/>
<path d="M14.0645 13.125H4.68945C4.1717 13.125 3.75195 13.5447 3.75195 14.0625C3.75195 14.5803 4.1717 15 4.68945 15H14.0645C14.5822 15 15.002 14.5803 15.002 14.0625C15.002 13.5447 14.5822 13.125 14.0645 13.125Z" fill="#0D85DB"/>
<path d="M14.0645 16.875H4.68945C4.1717 16.875 3.75195 17.2947 3.75195 17.8125C3.75195 18.3303 4.1717 18.75 4.68945 18.75H14.0645C14.5822 18.75 15.002 18.3303 15.002 17.8125C15.002 17.2947 14.5822 16.875 14.0645 16.875Z" fill="#0D85DB"/>
<path d="M14.0645 20.625H4.68945C4.1717 20.625 3.75195 21.0447 3.75195 21.5625C3.75195 22.0803 4.1717 22.5 4.68945 22.5H14.0645C14.5822 22.5 15.002 22.0803 15.002 21.5625C15.002 21.0447 14.5822 20.625 14.0645 20.625Z" fill="#0D85DB"/>
<path d="M17.8145 26.375H12.1895C11.6717 26.375 11.252 26.7947 11.252 27.3125C11.252 27.8303 11.6717 28.25 12.1895 28.25H17.8145C18.3322 28.25 18.752 27.8303 18.752 27.3125C18.752 26.7947 18.3322 26.375 17.8145 26.375Z" fill="#0D85DB"/>
</g>
<defs>
<clipPath id="clip0_558_5279">
<rect width="32" height="32" fill="white"/>
</clipPath>
</defs>
</svg>
