<svg width="32" height="32" viewBox="0 0 32 32" fill="none" xmlns="http://www.w3.org/2000/svg">
<g clip-path="url(#clip0_558_5301)">
<path d="M11.3505 8.58319C13.7172 8.58319 15.6425 6.658 15.6425 4.29156C15.6425 1.92513 13.7172 0 11.3505 0C8.98391 0 7.05859 1.92519 7.05859 4.29163C7.05859 6.65806 8.98397 8.58319 11.3505 8.58319ZM11.3505 1.875C12.6833 1.875 13.7675 2.95906 13.7675 4.29163C13.7675 5.62419 12.6833 6.70825 11.3505 6.70825C10.0178 6.70825 8.93359 5.62419 8.93359 4.29163C8.93359 2.95906 10.0178 1.875 11.3505 1.875Z" fill="#0D85DB"/>
<path d="M21.5718 17.1936C20.9404 17.1936 20.3272 17.2732 19.7417 17.4227V14.3066C19.7417 12.0062 17.8701 10.1348 15.5695 10.1348H7.19758C4.89702 10.1348 3.02539 12.0062 3.02539 14.3066V20.2288C3.02539 21.7661 4.2762 23.0169 5.8137 23.0169C6.13352 23.0169 6.44058 22.9621 6.72689 22.8626V31.0629C6.72689 31.5806 7.14664 32.0004 7.66439 32.0004H15.1003C15.618 32.0004 16.0378 31.5806 16.0378 31.0629V29.5052C17.3948 31.0327 19.3727 31.997 21.5719 31.997C25.6536 31.997 28.9743 28.6766 28.9743 24.5953C28.9743 20.514 25.6536 17.1936 21.5718 17.1936ZM15.1002 14.9841C14.5825 14.9841 14.1627 15.4039 14.1627 15.9216V30.1254H12.2878V20.8113C12.2878 20.2936 11.868 19.8738 11.3503 19.8738C10.8325 19.8738 10.4128 20.2936 10.4128 20.8113V30.1254H8.60183V20.2348C8.60183 20.2328 8.60195 20.2308 8.60195 20.2288C8.60195 20.2278 8.60183 20.2268 8.60183 20.2258V15.9216C8.60183 15.4039 8.18208 14.9841 7.66433 14.9841C7.14658 14.9841 6.72683 15.4039 6.72683 15.9216V20.2318C6.7252 20.734 6.3162 21.142 5.81364 21.142C5.31002 21.142 4.90033 20.7323 4.90033 20.2288V14.3066C4.90033 13.0401 5.93083 12.0098 7.19752 12.0098H15.5695C16.8361 12.0098 17.8666 13.0401 17.8666 14.3066V18.1895C17.1795 18.5885 16.5623 19.0948 16.0376 19.6853V15.9216C16.0377 15.4039 15.618 14.9841 15.1002 14.9841ZM21.5718 30.122C18.524 30.122 16.0444 27.6427 16.0444 24.5953C16.035 21.5278 18.57 19.0696 21.5718 19.0686C24.6196 19.0686 27.0992 21.5478 27.0992 24.5953C27.0992 27.6427 24.6196 30.122 21.5718 30.122Z" fill="#0D85DB"/>
<path d="M24.3426 21.8244C23.9764 21.4583 23.3829 21.4583 23.0168 21.8243L21.5713 23.2697L20.1258 21.8243C19.7596 21.4583 19.166 21.4583 18.7999 21.8244C18.4338 22.1905 18.4339 22.7841 18.8 23.1502L20.2454 24.5953L18.8 26.0405C18.4339 26.4065 18.4339 27.0002 18.7999 27.3663C18.983 27.5494 19.223 27.6409 19.4629 27.6409C19.7027 27.6409 19.9427 27.5494 20.1257 27.3663L21.5712 25.921L23.0167 27.3663C23.1998 27.5494 23.4397 27.6409 23.6795 27.6409C23.9194 27.6409 24.1595 27.5493 24.3425 27.3663C24.7085 27.0002 24.7085 26.4065 24.3424 26.0405L22.8971 24.5953L24.3424 23.1502C24.7087 22.7841 24.7087 22.1905 24.3426 21.8244Z" fill="#0D85DB"/>
</g>
<defs>
<clipPath id="clip0_558_5301">
<rect width="32" height="32" fill="white"/>
</clipPath>
</defs>
</svg>
