<svg width="33" height="32" viewBox="0 0 33 32" fill="none" xmlns="http://www.w3.org/2000/svg">
<path d="M23.8667 11.2857V15.4285C23.8667 16.7785 22.7685 17.8766 21.4186 17.8766H19.8553C21.5109 15.4961 20.1338 12.0458 17.3498 11.4096L19.2607 8.09736C22.6362 7.48465 22.9468 2.72313 19.6577 1.70116C18.0903 -0.567367 14.5777 -0.56674 13.0107 1.70116C9.71564 2.74089 10.0283 7.46984 13.4078 8.09736L15.3186 11.4096C12.5337 12.0462 11.158 15.4967 12.8132 17.8766H11.2497C9.89987 17.8766 8.8017 16.7785 8.8017 15.4285V11.2857H3.15234V16.0458C3.15234 19.8695 6.03621 23.0324 9.74325 23.4734V32H22.9251V23.4734C26.6321 23.0324 29.516 19.8695 29.516 16.0458V11.2857H23.8667ZM13.9803 6.26402C12.2536 6.22096 12.0523 3.77611 13.7502 3.45836L14.1968 3.38555L14.4189 2.99128C15.2329 1.50751 17.4358 1.50795 18.2495 2.99128L18.4716 3.38555L18.9182 3.45836C20.6172 3.77673 20.4135 6.22146 18.6881 6.26402H18.1443L16.3342 9.40154L14.524 6.26402H13.9803ZM13.9803 15.5227C13.9803 14.225 15.0359 13.1692 16.3337 13.1688L16.3342 13.1699L16.3349 13.1688C17.6326 13.1692 18.6881 14.225 18.6881 15.5227C18.5698 18.6413 14.0981 18.6401 13.9803 15.5227ZM27.6329 16.0458C27.6329 19.132 25.1221 21.6428 22.0359 21.6428H21.042V30.1168H11.6264V21.6428H10.6326C7.54635 21.6428 5.03552 19.132 5.03552 16.0458V13.1688H6.91864V15.4285C6.91864 17.8168 8.86158 19.7597 11.2498 19.7597H21.4186C23.8069 19.7597 25.7498 17.8168 25.7498 15.4285V13.1688H27.6329V16.0458Z" fill="#E44332"/>
<path d="M26.2988 4.13948L28.1819 5.08104L29.4668 1.22643L27.6803 0.630859L27.0821 2.4256L25.199 1.48404L23.9141 5.33865L25.7006 5.93422L26.2988 4.13948Z" fill="#E44332"/>
<path d="M6.3692 4.13948L6.96741 5.93422L8.75392 5.33865L7.46901 1.48404L5.58589 2.4256L4.98769 0.630859L3.20117 1.22643L4.48609 5.08104L6.3692 4.13948Z" fill="#E44332"/>
</svg>
