<svg width="32" height="32" viewBox="0 0 32 32" fill="none" xmlns="http://www.w3.org/2000/svg">
<g clip-path="url(#clip0_558_5309)">
<path d="M31.9895 6.02535C31.9692 5.52232 31.5555 5.1256 31.0529 5.1256C31.0506 5.1256 31.0481 5.1256 31.0457 5.1256C30.9999 5.12598 30.9541 5.12616 30.9084 5.12616C26.9284 5.12616 23.2747 3.80851 20.8994 2.69571C18.267 1.46255 16.581 0.202384 16.5648 0.190198C16.2305 -0.0620971 15.7694 -0.0620971 15.4352 0.190198C15.369 0.240194 8.72782 5.18597 0.954305 5.1256C0.951868 5.1256 0.94943 5.1256 0.946993 5.1256C0.444403 5.1256 0.0306823 5.52239 0.0104338 6.02535C0.0012469 6.25377 -0.193864 11.6888 1.6037 17.6155C2.67106 21.1347 4.22401 24.0893 6.21943 26.3974C8.74438 29.318 11.972 31.1961 15.8125 31.9798C15.9362 32.005 16.0637 32.005 16.1874 31.9798C20.0279 31.1961 23.2555 29.318 25.7804 26.3974C27.7759 24.0893 29.3289 21.1347 30.3962 17.6155C32.1938 11.6888 31.9987 6.25377 31.9895 6.02535ZM28.602 17.0714C27.6113 20.3377 26.1848 23.0628 24.3621 25.1711C22.1554 27.7235 19.3428 29.3823 15.9999 30.1034C12.665 29.3841 9.85812 27.7318 7.65402 25.1901C5.83209 23.089 4.40469 20.3727 3.41157 17.1167C2.10766 12.8417 1.90186 8.73591 1.87918 6.98553C5.90971 6.82836 9.5377 5.50264 11.9408 4.3724C13.8431 3.47765 15.2632 2.58284 15.9999 2.08481C16.7365 2.5829 18.1566 3.47765 20.059 4.3724C22.4622 5.50276 26.0903 6.82861 30.1212 6.98553C30.0996 8.72741 29.8967 12.8029 28.602 17.0714Z" fill="#0D85DB"/>
<path d="M14.7107 20.3476C14.8866 20.5238 15.1253 20.6228 15.3743 20.6228C15.6232 20.6228 15.862 20.5238 16.0379 20.3476L18.9039 17.4756C19.2697 17.1091 19.2691 16.5156 18.9026 16.1499C18.5362 15.7842 17.9426 15.7847 17.5769 16.1512L15.3744 18.3582L14.4232 17.4051C14.0575 17.0386 13.4639 17.038 13.0975 17.4038C12.7311 17.7695 12.7304 18.3631 13.0962 18.7295L14.7107 20.3476Z" fill="#0D85DB"/>
<path d="M15.9995 5.87598C13.3978 5.87598 11.2811 7.99264 11.2811 10.5944V11.9693H9.96868C9.45097 11.9693 9.03125 12.389 9.03125 12.9067V21.7085C9.03125 23.4715 10.4656 24.9059 12.2286 24.9059H19.7704C21.5334 24.9059 22.9678 23.4715 22.9678 21.7085V12.9067C22.9678 12.389 22.548 11.9693 22.0303 11.9693H20.7179V10.5944C20.7179 7.99264 18.6012 5.87598 15.9995 5.87598ZM13.156 10.5944C13.156 9.02644 14.4316 7.75084 15.9995 7.75084C17.5675 7.75084 18.8431 9.02644 18.8431 10.5944V11.9381H13.156V10.5944ZM21.0929 21.7085C21.0929 22.4377 20.4996 23.031 19.7704 23.031H12.2285C11.4993 23.031 10.9061 22.4377 10.9061 21.7085V13.8442H21.0928V21.7085H21.0929Z" fill="#0D85DB"/>
</g>
<defs>
<clipPath id="clip0_558_5309">
<rect width="32" height="32" fill="white"/>
</clipPath>
</defs>
</svg>
