<svg width="11" height="11" viewBox="0 0 11 11" fill="none" xmlns="http://www.w3.org/2000/svg">
<path d="M5.38574 7.51465C5.59273 7.51465 5.76055 7.6827 5.76074 7.88965V10.4189C5.76074 10.6261 5.59285 10.7939 5.38574 10.7939C5.17877 10.7938 5.01074 10.626 5.01074 10.4189V7.88965C5.01093 7.6828 5.17889 7.51481 5.38574 7.51465ZM2.0957 6.49512C2.29434 6.43675 2.50305 6.55044 2.56152 6.74902C2.79079 7.52921 3.40786 8.14569 4.18652 8.37109C4.38511 8.42882 4.49972 8.63625 4.44238 8.83496C4.38479 9.0339 4.17648 9.14841 3.97754 9.09082C2.95156 8.79375 2.14291 7.9854 1.8418 6.96094C1.78345 6.76238 1.89727 6.55369 2.0957 6.49512ZM8.67578 6.45801C8.87449 6.5164 8.98906 6.72512 8.93066 6.92383C8.62956 7.94828 7.82088 8.75662 6.79492 9.05371C6.59598 9.1113 6.38767 8.99679 6.33008 8.79785C6.27272 8.59911 6.3873 8.39168 6.58594 8.33398C7.3646 8.10858 7.98167 7.4921 8.21094 6.71191C8.26938 6.51347 8.47726 6.39989 8.67578 6.45801ZM3.04883 5.18066C3.25585 5.18066 3.42369 5.34867 3.42383 5.55566C3.42383 5.76277 3.25593 5.93066 3.04883 5.93066H0.519531C0.312424 5.93066 0.144531 5.76277 0.144531 5.55566C0.144665 5.34867 0.312507 5.18066 0.519531 5.18066H3.04883ZM10.25 5.18066C10.457 5.18071 10.6249 5.3487 10.625 5.55566C10.625 5.76274 10.4571 5.93062 10.25 5.93066H7.7207C7.5136 5.93066 7.3457 5.76277 7.3457 5.55566C7.34584 5.34867 7.51368 5.18066 7.7207 5.18066H10.25ZM3.88477 2.02148C4.08367 1.96397 4.29106 2.07844 4.34863 2.27734C4.40608 2.47622 4.29164 2.68364 4.09277 2.74121C3.3142 2.96666 2.698 3.58316 2.46875 4.36328C2.41029 4.56189 2.20158 4.67556 2.00293 4.61719C1.80429 4.55875 1.69064 4.35004 1.74902 4.15137C2.05017 3.12686 2.85871 2.3185 3.88477 2.02148ZM6.79785 2.02148C7.8224 2.31819 8.62994 3.1254 8.93066 4.14844C8.98901 4.34699 8.87518 4.55568 8.67676 4.61426C8.47809 4.67264 8.26938 4.55898 8.21094 4.36035C7.98206 3.5815 7.3662 2.96623 6.58887 2.74121C6.3902 2.68355 6.27568 2.47609 6.33301 2.27734C6.3906 2.0784 6.59891 1.9639 6.79785 2.02148ZM5.38574 0.316406C5.59285 0.316406 5.76074 0.484299 5.76074 0.691406V3.2207C5.76074 3.42781 5.59285 3.5957 5.38574 3.5957C5.17877 3.59554 5.01074 3.42771 5.01074 3.2207V0.691406C5.01074 0.484398 5.17877 0.316566 5.38574 0.316406Z" fill="white"/>
</svg>
