<svg width="38" height="48" viewBox="0 0 38 48" fill="none" xmlns="http://www.w3.org/2000/svg">
<g id="logo" clip-path="url(#clip0_54_382)">
<path id="Vector" d="M18.0476 41.2047C17.7143 41.6141 17.3571 42.0117 17.1429 42.2339C17.0238 42.3509 16.8214 42.2339 16.881 42.0819C16.9881 41.7895 17.0952 41.4971 17.2024 41.193C17.5714 40.1053 17.9405 38.4913 18.1548 37.4737C18.2619 36.9474 17.9405 36.4328 17.4167 36.2924C16.8571 36.1404 16.2738 36.4796 16.1548 37.041C15.6548 39.2515 15 41.2398 14.2024 42.8889C14.1071 43.0877 13.7976 43.0176 13.7976 42.7953V17.3918C14.9048 17.3567 16.0119 17.2515 17.119 17.0994C17.2619 18.4211 17.3571 19.7661 17.4048 21.1345C17.4286 21.6374 17.7976 22.0585 18.3095 22.1404H18.3333C18.9881 22.2456 19.5714 21.7427 19.5476 21.0877C19.4881 19.6491 19.381 18.1872 19.2143 16.7135C20.2262 16.4912 21.2381 16.2105 22.25 15.8831C22.9881 18.655 23.2024 21.579 23.25 22.6667C23.2619 22.924 23.4405 23.1462 23.7024 23.2047C23.8333 23.2398 23.9405 23.2632 24.0476 23.2983C24.7381 23.4971 25.4286 22.9591 25.3929 22.2456C25.25 19.4971 24.8095 16.8655 24.0833 14.4211C24.0833 14.3158 24.0595 14.2105 24.0119 14.1053C23.9881 14.0585 23.9643 14 23.9405 13.9532C21.9881 7.63745 18.2024 2.60821 13.2381 0.128678C13.1667 0.0935901 13.0952 0.0585024 13.0238 0.0468065C12.9286 0.0234147 12.8333 0.0117188 12.7262 0.0117188C12.631 0.0117188 12.5238 0.0234147 12.4286 0.0585024C12.3571 0.0818942 12.2857 0.105286 12.2143 0.140374C7.25 2.60821 3.46429 7.63745 1.5 13.9532C1.46429 14 1.44048 14.0585 1.41667 14.117C1.38095 14.2105 1.35714 14.3158 1.35714 14.4211C0.488095 17.3801 0.0119048 20.6082 0 23.9766V24C0 24.117 0 24.2222 0 24.3275C0.047619 35.193 4.7381 44.2105 12.2143 47.8714C12.2857 47.9065 12.3571 47.9298 12.4286 47.9532C12.5238 47.9766 12.619 47.9883 12.7143 47.9883C12.8095 47.9883 12.9167 47.9766 13.0119 47.9415C13.0833 47.9182 13.1548 47.8948 13.2143 47.8597C15.1905 46.8889 16.9762 45.5556 18.5238 43.8948C18.7619 43.6374 19 43.3684 19.2143 43.1345C19.6786 42.6082 19.7381 41.848 19.3571 41.2632C19.0595 40.7953 18.381 40.7603 18.0238 41.193L18.0476 41.2047ZM17.131 5.83628C18.9881 7.92985 20.4881 10.5614 21.5357 13.5439C21.5952 13.7076 21.5 13.8831 21.3452 13.9298C20.6548 14.1521 19.9643 14.3392 19.2738 14.5146C19.1071 14.5614 18.9286 14.4445 18.9048 14.269C18.4643 11.31 17.7976 8.45616 16.8571 5.98833C16.7976 5.82458 17.0119 5.70762 17.131 5.83628ZM13.8095 5.2164C13.8095 5.00587 14.0952 4.94739 14.1905 5.13453C15.4048 7.67254 16.2857 11.0059 16.8333 14.6901C16.8571 14.8538 16.7381 15.0059 16.5714 15.0293C15.7619 15.1462 14.9405 15.2164 14.119 15.2515C13.9524 15.2515 13.8095 15.1345 13.8095 14.9708V5.2164ZM3.90476 13.5205C4.94048 10.5965 6.39286 8.01172 8.20238 5.94154C8.33333 5.7895 8.59524 5.94154 8.52381 6.11698C7.61905 8.53803 6.97619 11.3334 6.53571 14.2222C6.5119 14.3977 6.33333 14.5146 6.16667 14.4679C5.47619 14.3041 4.79762 14.117 4.10714 13.9065C3.94048 13.8597 3.84524 13.6725 3.90476 13.5088V13.5205ZM3.10714 16.1872C3.15476 16.0117 3.34524 15.9065 3.52381 15.9649C4.33333 16.2105 5.14286 16.4328 5.94048 16.6199C6.09524 16.655 6.20238 16.807 6.19048 16.9591C5.98809 18.8772 5.88095 20.7836 5.83333 22.6199C5.83333 22.7953 5.67857 22.9357 5.5 22.9357H2.52381C2.33333 22.9357 2.17857 22.7836 2.19048 22.5965C2.28571 20.3626 2.60714 18.2105 3.10714 16.1872ZM3.02381 31.848C2.55952 29.8831 2.2619 27.731 2.17857 25.3684C2.17857 25.2047 2.30952 25.0644 2.47619 25.0644H5.53571C5.70238 25.0644 5.83333 25.193 5.83333 25.3451C5.86905 27.193 5.97619 29.1228 6.16667 31.041C6.17857 31.1813 6.08333 31.3217 5.94048 31.3567C5.09524 31.5556 4.25 31.7895 3.40476 32.0585C3.2381 32.117 3.05952 32.0234 3.0119 31.848H3.02381ZM8.27381 42.1989C6.48809 40.2339 4.90476 37.6842 3.79762 34.4912C3.7381 34.3275 3.83333 34.1404 4 34.0936C4.70238 33.8597 5.41667 33.6608 6.13095 33.4854C6.30952 33.4386 6.47619 33.5556 6.5 33.731C6.94048 36.6901 7.60714 39.5556 8.54762 42.0234C8.60714 42.1872 8.39286 42.3158 8.27381 42.1872V42.1989ZM11.6429 42.7603C11.6429 42.9825 11.3214 43.0644 11.2262 42.8538C10 40.3041 9.13095 36.9474 8.59524 33.2398C8.58333 33.1228 8.66667 33.0059 8.78571 32.9825C9.65476 32.8538 10.5357 32.7836 11.4167 32.7369C11.5357 32.7369 11.6429 32.8304 11.6429 32.9474V42.7603ZM11.6429 30.3041C11.6429 30.4679 11.5119 30.6082 11.3333 30.6199C10.4286 30.655 9.52381 30.7369 8.63095 30.8655C8.45238 30.8889 8.28571 30.772 8.27381 30.5965C8.10714 28.9006 8.0119 27.1462 7.97619 25.3918C7.97619 25.2164 8.11905 25.0644 8.29762 25.0644H11.3214C11.5 25.0644 11.6429 25.2047 11.6429 25.3801V30.3041ZM11.6429 22.6199C11.6429 22.7953 11.5 22.9357 11.3214 22.9357H8.30952C8.13095 22.9357 7.97619 22.7836 7.9881 22.6082C8.02381 20.8421 8.13095 19.0877 8.29762 17.3918C8.30952 17.2164 8.47619 17.0877 8.65476 17.1111C9.54762 17.2398 10.4524 17.3217 11.3452 17.3684C11.5119 17.3684 11.6548 17.5088 11.6548 17.6842V22.6199H11.6429ZM11.3333 15.2398C10.5238 15.193 9.71428 15.1111 8.89286 14.9942C8.72619 14.9708 8.60714 14.807 8.63095 14.6433C9.16667 11.0059 10.0357 7.70762 11.2381 5.18131C11.3333 4.98248 11.6429 5.05265 11.6429 5.27488V14.9357C11.6429 15.0994 11.5 15.2398 11.3333 15.2281V15.2398Z" fill="#222222"/>
<path id="Vector_2" d="M37.3929 30.5029C30.9286 27.4385 24.5477 25.3099 18.25 24.269C17.4048 24.1286 16.6667 24.8538 16.8096 25.6959C18 32.3859 20.131 38.7251 23.2024 44.7251C23.631 45.5672 24.8929 45.4736 25.1905 44.5847L27.3096 38.3391C27.9167 36.538 29.3572 35.1228 31.1905 34.5029L37.2738 32.4678C38.1905 32.1637 38.2619 30.9239 37.4048 30.5029H37.3929Z" fill="#222222"/>
</g>
<defs>
<clipPath id="clip0_54_382">
<rect width="38" height="48" fill="white"/>
</clipPath>
</defs>
</svg>
