<svg width="48" height="48" viewBox="0 0 48 48" fill="none" xmlns="http://www.w3.org/2000/svg">
<g clip-path="url(#clip0_936_963)">
<path d="M24 48C37.2548 48 48 37.2548 48 24C48 10.7452 37.2548 0 24 0C10.7452 0 0 10.7452 0 24C0 37.2548 10.7452 48 24 48Z" fill="url(#paint0_linear_936_963)"/>
<path d="M26.4982 24.8328C29.7119 24.8328 32.3273 22.2175 32.3273 19.0037C32.3273 15.7899 29.712 13.1746 26.4982 13.1746C23.2844 13.1746 20.6692 15.7898 20.6692 19.0037C20.6692 22.2175 23.2844 24.8328 26.4982 24.8328ZM24.2439 19.2477C24.5692 18.9224 25.0962 18.9224 25.4214 19.2477L25.6654 19.4917L27.5748 17.5822C27.9001 17.2569 28.4271 17.2569 28.7523 17.5822C29.0775 17.9076 29.0776 18.4345 28.7523 18.7597L26.2541 21.2579C26.0915 21.4206 25.8785 21.5018 25.6654 21.5018C25.4523 21.5018 25.2393 21.4206 25.0766 21.2579L24.2439 20.4252C23.9187 20.1 23.9187 19.573 24.2439 19.2477ZM37.9887 18.502C37.8309 18.2938 37.5846 18.171 37.3236 18.171H33.9084C33.9397 18.448 33.9926 18.7186 33.9926 19.0037C33.9926 23.1364 30.6308 26.4982 26.4982 26.4982C22.3655 26.4982 19.0037 23.1364 19.0037 19.0037C19.0037 18.7186 19.0567 18.4479 19.0879 18.171H16.3953L15.3077 10.5586C15.2491 10.1487 14.8978 9.84375 14.4831 9.84375H10.6764C10.2161 9.84375 9.84375 10.2162 9.84375 10.6764C9.84375 11.1367 10.2162 11.5091 10.6764 11.5091H13.7609L16.1054 27.9196C16.246 28.9038 16.7372 29.7657 17.434 30.3997C16.8722 30.8581 16.5054 31.5471 16.5054 32.3272C16.5054 33.4788 17.2926 34.441 18.3543 34.729C18.2383 35.0167 18.1709 35.3292 18.1709 35.6581C18.1709 37.0357 19.2915 38.1562 20.6691 38.1562C22.0466 38.1562 23.1672 37.0357 23.1672 35.6581C23.1672 35.3647 23.1071 35.0872 23.0138 34.8254H29.9824C29.8891 35.0872 29.829 35.3647 29.829 35.6581C29.829 37.0357 30.9496 38.1562 32.3272 38.1562C33.7047 38.1562 34.8253 37.0357 34.8253 35.6581C34.8253 34.2805 33.7047 33.1599 32.3272 33.1599H19.0037C18.5442 33.1599 18.171 32.7867 18.171 32.3272C18.171 31.8678 18.5442 31.4945 19.0037 31.4945H31.4798C33.3291 31.4945 34.975 30.2527 35.4841 28.4742L38.1246 19.2322C38.1961 18.981 38.1457 18.711 37.9887 18.502Z" fill="url(#paint1_linear_936_963)"/>
</g>
<defs>
<linearGradient id="paint0_linear_936_963" x1="24" y1="48" x2="24" y2="0" gradientUnits="userSpaceOnUse">
<stop stop-color="#C3FFE8"/>
<stop offset="0.9973" stop-color="#F0FFF4"/>
</linearGradient>
<linearGradient id="paint1_linear_936_963" x1="24.0001" y1="9.84384" x2="24.0001" y2="38.1563" gradientUnits="userSpaceOnUse">
<stop stop-color="#00B59C"/>
<stop offset="1" stop-color="#9CFFAC"/>
</linearGradient>
<clipPath id="clip0_936_963">
<rect width="48" height="48" fill="white"/>
</clipPath>
</defs>
</svg>
