<svg width="48" height="48" viewBox="0 0 48 48" fill="none" xmlns="http://www.w3.org/2000/svg">
<g clip-path="url(#clip0_936_944)">
<path d="M24 48C37.2548 48 48 37.2548 48 24C48 10.7452 37.2548 0 24 0C10.7452 0 0 10.7452 0 24C0 37.2548 10.7452 48 24 48Z" fill="url(#paint0_linear_936_944)"/>
<path d="M19.9085 10.3297L15.4176 14.8206H19.9085V10.3297ZM32.3505 26.5437C29.1489 26.5437 26.5442 29.1484 26.5442 32.35C26.5442 32.9676 26.6409 33.5754 26.8312 34.1559C27.6129 36.5486 29.831 38.1562 32.3505 38.1562C35.552 38.1562 38.1568 35.5516 38.1568 32.3499C38.1568 29.1484 35.5521 26.5437 32.3505 26.5437ZM33.18 34.4237C33.18 34.8818 32.8086 35.2532 32.3505 35.2532C31.8923 35.2532 31.521 34.8818 31.521 34.4237V32.7647C31.521 32.3066 31.8923 31.9352 32.3505 31.9352C32.8086 31.9352 33.18 32.3065 33.18 32.7647V34.4237ZM32.3505 31.1058C31.8924 31.1058 31.521 30.7344 31.521 30.2763C31.521 29.8182 31.8923 29.4468 32.3505 29.4468C32.8086 29.4468 33.18 29.8181 33.18 30.2763C33.18 30.7344 32.8086 31.1058 32.3505 31.1058ZM24.8854 32.3499C24.8854 28.2336 28.2342 24.8847 32.3506 24.8847C32.631 24.8847 32.9076 24.9007 33.1801 24.931V10.6732C33.1801 10.2152 32.8087 9.84375 32.3506 9.84375H21.5675V15.6501C21.5675 16.1081 21.1961 16.4796 20.738 16.4796H14.9316V33.8984C14.9316 34.3565 15.303 34.7279 15.7611 34.7279H25.2742C25.2679 34.7089 25.2606 34.6902 25.2545 34.6711C25.0097 33.9248 24.8854 33.1433 24.8854 32.3499ZM19.079 19.7974H29.0327C29.4907 19.7974 29.8622 20.1687 29.8622 20.6269C29.8622 21.0849 29.4908 21.4564 29.0327 21.4564H19.079C18.621 21.4564 18.2495 21.085 18.2495 20.6269C18.2495 20.1687 18.621 19.7974 19.079 19.7974ZM19.079 23.1153H29.0327C29.4907 23.1153 29.8622 23.4866 29.8622 23.9448C29.8622 24.4028 29.4908 24.7743 29.0327 24.7743H19.079C18.621 24.7743 18.2495 24.4029 18.2495 23.9448C18.2495 23.4866 18.621 23.1153 19.079 23.1153ZM24.0559 28.092H19.079C18.621 28.092 18.2495 27.7207 18.2495 27.2625C18.2495 26.8044 18.6209 26.433 19.079 26.433H24.0559C24.5139 26.433 24.8854 26.8043 24.8854 27.2625C24.8854 27.7207 24.5139 28.092 24.0559 28.092Z" fill="url(#paint1_linear_936_944)"/>
</g>
<defs>
<linearGradient id="paint0_linear_936_944" x1="24" y1="48" x2="24" y2="0" gradientUnits="userSpaceOnUse">
<stop stop-color="#FFBEF9"/>
<stop offset="1" stop-color="#FFF1FF"/>
</linearGradient>
<linearGradient id="paint1_linear_936_944" x1="26.5443" y1="9.84375" x2="26.5443" y2="38.1562" gradientUnits="userSpaceOnUse">
<stop stop-color="#A93AFF"/>
<stop offset="1" stop-color="#FF81FF"/>
</linearGradient>
<clipPath id="clip0_936_944">
<rect width="48" height="48" fill="white"/>
</clipPath>
</defs>
</svg>
