<svg width="48" height="48" viewBox="0 0 48 48" fill="none" xmlns="http://www.w3.org/2000/svg">
<g clip-path="url(#clip0_936_950)">
<path d="M24 48C37.2548 48 48 37.2548 48 24C48 10.7452 37.2548 0 24 0C10.7452 0 0 10.7452 0 24C0 37.2548 10.7452 48 24 48Z" fill="url(#paint0_linear_936_950)"/>
<path d="M12.4219 17.4119L13.9943 16.5854L15.5667 17.4119C15.8529 17.5627 16.194 17.5319 16.4453 17.3483C16.7018 17.1619 16.8304 16.8459 16.7767 16.5333L16.4762 14.7817L17.749 13.5415C17.9761 13.3201 18.0576 12.9887 17.9599 12.6874C17.8614 12.3853 17.6009 12.1655 17.2865 12.1198L15.5285 11.8641L14.742 10.2713C14.6019 9.98634 14.2982 9.84384 13.9945 9.84384C13.6907 9.84384 13.387 9.98634 13.2469 10.2713L12.4604 11.8641L10.7024 12.1198C10.388 12.1654 10.1275 12.3853 10.029 12.6874C9.93126 12.9887 10.0126 13.3201 10.2399 13.5415L11.5126 14.7817L11.2122 16.5333C11.1585 16.8459 11.2871 17.162 11.5436 17.3483C11.8006 17.5364 12.1418 17.56 12.4219 17.4119ZM22.4278 17.4119L24.0001 16.5853L25.5725 17.4118C25.8587 17.5626 26.1998 17.5318 26.4511 17.3483C26.7076 17.1618 26.8363 16.8458 26.7825 16.5332L26.4821 14.7817L27.7548 13.5414C27.982 13.32 28.0635 12.9886 27.9658 12.6873C27.8672 12.3852 27.6067 12.1654 27.2924 12.1197L25.5344 11.864L24.7478 10.2712C24.6077 9.98625 24.304 9.84375 24.0003 9.84375C23.6967 9.84375 23.3929 9.98625 23.2529 10.2712L22.4663 11.864L20.7083 12.1197C20.394 12.1653 20.1334 12.3852 20.0349 12.6873C19.9372 12.9886 20.0186 13.32 20.2458 13.5414L21.5186 14.7817L21.2181 16.5332C21.1644 16.8458 21.293 17.1619 21.5495 17.3483C21.8056 17.5364 22.1476 17.56 22.4278 17.4119ZM37.9715 12.6874C37.873 12.3853 37.6125 12.1655 37.2981 12.1198L35.5401 11.8641L34.7535 10.2713C34.6135 9.98634 34.3098 9.84384 34.0061 9.84384C33.7023 9.84384 33.3986 9.98634 33.2585 10.2713L32.472 11.8641L30.714 12.1198C30.3996 12.1654 30.1391 12.3853 30.0405 12.6874C29.9429 12.9887 30.0242 13.3201 30.2515 13.5415L31.5242 14.7817L31.2238 16.5333C31.17 16.8459 31.2987 17.162 31.5552 17.3483C31.8117 17.5364 32.1528 17.56 32.4338 17.4119L34.0062 16.5854L35.5785 17.4119C35.8648 17.5627 36.2058 17.5319 36.4572 17.3483C36.7137 17.1619 36.8423 16.8459 36.7886 16.5333L36.4881 14.7817L37.7609 13.5415C37.9878 13.3201 38.0693 12.9887 37.9715 12.6874ZM11.4928 27.3167V37.3225C11.4928 37.7834 11.8657 38.1563 12.3266 38.1563H19.831V26.4829H12.3266C11.8657 26.4829 11.4928 26.8558 11.4928 27.3167ZM17.3295 33.1535C17.79 33.1535 18.1634 33.5267 18.1634 33.9873C18.1634 34.4478 17.79 34.8212 17.3295 34.8212C16.869 34.8212 16.4957 34.4479 16.4957 33.9873C16.4957 33.5268 16.8691 33.1535 17.3295 33.1535ZM34.0223 26.4829H29.8369V21.48C29.8369 20.1006 28.7148 18.9785 27.3355 18.9785H25.6679C25.207 18.9785 24.834 19.3514 24.834 19.8123V23.9814C24.834 24.6533 24.5743 25.2761 24.0873 25.7509C23.6273 26.2232 23.0035 26.4829 22.3325 26.4829H21.4987V38.1564H31.805C32.8693 38.1564 33.822 37.4757 34.1803 36.4513L36.3975 29.7832C36.6589 29.0104 36.5368 28.188 36.0629 27.5268C35.5874 26.8632 34.8439 26.4829 34.0223 26.4829Z" fill="url(#paint1_linear_936_950)"/>
</g>
<defs>
<linearGradient id="paint0_linear_936_950" x1="24" y1="48" x2="24" y2="0" gradientUnits="userSpaceOnUse">
<stop stop-color="#ADDCFF"/>
<stop offset="0.5028" stop-color="#EAF6FF"/>
<stop offset="1" stop-color="#EAF6FF"/>
</linearGradient>
<linearGradient id="paint1_linear_936_950" x1="24.0001" y1="38.1564" x2="24.0001" y2="9.84394" gradientUnits="userSpaceOnUse">
<stop stop-color="#00C0FF"/>
<stop offset="1" stop-color="#5558FF"/>
</linearGradient>
<clipPath id="clip0_936_950">
<rect width="48" height="48" fill="white"/>
</clipPath>
</defs>
</svg>
