<svg width="48" height="48" viewBox="0 0 48 48" fill="none" xmlns="http://www.w3.org/2000/svg">
<g clip-path="url(#clip0_936_956)">
<path d="M24 48C37.2548 48 48 37.2548 48 24C48 10.7452 37.2548 0 24 0C10.7452 0 0 10.7452 0 24C0 37.2548 10.7452 48 24 48Z" fill="url(#paint0_linear_936_956)"/>
<path d="M18.1709 9.84375H16.5054V13.1746H18.1709V9.84375ZM10.6764 23.1673H16.5055V24C16.5055 24.4603 16.878 24.8327 17.3382 24.8327C17.7985 24.8327 18.1709 24.4602 18.1709 24V23.1673H24C24.4603 23.1673 24.8327 22.7948 24.8327 22.3346V10.6764C24.8327 10.2161 24.4602 9.84375 24 9.84375H19.8364V14.0074C19.8364 14.4677 19.4639 14.8401 19.0037 14.8401H15.6728C15.2125 14.8401 14.8402 14.4676 14.8402 14.0074V9.84375H10.6765C10.2162 9.84375 9.84384 10.2162 9.84384 10.6764V22.3345C9.84375 22.7948 10.2162 23.1673 10.6764 23.1673ZM32.3272 18.1709C29.1134 18.1709 26.4981 20.7862 26.4981 24C26.4981 25.0197 26.7665 26.0249 27.2755 26.9063L31.6067 34.409C31.7547 34.6668 32.0296 34.8253 32.3272 34.8253C32.6248 34.8253 32.8997 34.6668 33.0476 34.409L37.3804 26.9055C37.8878 26.0249 38.1562 25.0197 38.1562 24C38.1562 20.7863 35.541 18.1709 32.3272 18.1709ZM32.3272 26.4982C30.9496 26.4982 29.829 25.3776 29.829 24C29.829 22.6224 30.9496 21.5018 32.3272 21.5018C33.7047 21.5018 34.8253 22.6224 34.8253 24C34.8254 25.3776 33.7048 26.4982 32.3272 26.4982ZM32.3272 23.1673C31.8685 23.1673 31.4945 23.5405 31.4945 24C31.4945 24.4595 31.8685 24.8327 32.3272 24.8327C32.7858 24.8327 33.1598 24.4595 33.1598 24C33.1598 23.5405 32.7859 23.1673 32.3272 23.1673ZM32.3272 36.4908H28.9963C28.536 36.4908 28.1636 36.8633 28.1636 37.3235C28.1636 37.7837 28.5361 38.1562 28.9963 38.1562H32.3272C32.7875 38.1562 33.1598 37.7837 33.1598 37.3235C33.1598 36.8633 32.7875 36.4908 32.3272 36.4908ZM25.6655 36.4908H22.3346C21.8743 36.4908 21.5019 36.8633 21.5019 37.3235C21.5019 37.7837 21.8744 38.1562 22.3346 38.1562H25.6655C26.1258 38.1562 26.4982 37.7837 26.4982 37.3235C26.4982 36.8633 26.1257 36.4908 25.6655 36.4908ZM19.0037 36.4908H15.6728C15.2125 36.4908 14.8402 36.8633 14.8402 37.3235C14.8402 37.7837 15.2126 38.1562 15.6728 38.1562H19.0037C19.464 38.1562 19.8364 37.7837 19.8364 37.3235C19.8364 36.8633 19.4639 36.4908 19.0037 36.4908ZM19.0037 33.1599H15.6728C15.2125 33.1599 14.8402 33.5324 14.8402 33.9926C14.8402 34.4528 15.2126 34.8253 15.6728 34.8253H19.0037C19.464 34.8253 19.8364 34.4528 19.8364 33.9926C19.8364 33.5324 19.4639 33.1599 19.0037 33.1599ZM19.0037 28.1636C18.5451 28.1636 18.171 27.7904 18.171 27.3309C18.171 26.8706 17.7985 26.4983 17.3383 26.4983C16.878 26.4983 16.5056 26.8707 16.5056 27.3309C16.5056 28.7085 17.6262 29.8291 19.0038 29.8291C19.4641 29.8291 19.8365 29.4566 19.8365 28.9964C19.8364 28.5361 19.4639 28.1636 19.0037 28.1636ZM12.3419 34.8254C12.8022 34.8254 13.1746 34.4529 13.1746 33.9927C13.1746 33.5325 12.8021 33.16 12.3419 33.16C10.9643 33.16 9.84375 34.2806 9.84375 35.6582C9.84375 37.0357 10.9643 38.1562 12.3419 38.1562C12.8022 38.1562 13.1746 37.7838 13.1746 37.3236C13.1746 36.8633 12.8021 36.4909 12.3419 36.4909C11.8833 36.4909 11.5092 36.1177 11.5092 35.6582C11.5092 35.1987 11.8833 34.8254 12.3419 34.8254ZM22.3345 33.1599C21.8742 33.1599 21.5018 33.5324 21.5018 33.9926C21.5018 34.4528 21.8743 34.8253 22.3345 34.8253C23.7121 34.8253 24.8327 33.7047 24.8327 32.3272V30.6617C24.8327 29.2841 23.7121 28.1635 22.3345 28.1635C21.8742 28.1635 21.5018 28.536 21.5018 28.9962C21.5018 29.4565 21.8743 29.8289 22.3345 29.8289C22.7932 29.8289 23.1672 30.2021 23.1672 30.6616V32.3271C23.1673 32.7867 22.7932 33.1599 22.3345 33.1599Z" fill="url(#paint1_linear_936_956)"/>
</g>
<defs>
<linearGradient id="paint0_linear_936_956" x1="24" y1="48" x2="24" y2="0" gradientUnits="userSpaceOnUse">
<stop stop-color="#FFC2CC"/>
<stop offset="1" stop-color="#FFF2F4"/>
</linearGradient>
<linearGradient id="paint1_linear_936_956" x1="24" y1="38.1562" x2="24" y2="9.84375" gradientUnits="userSpaceOnUse">
<stop stop-color="#FFA68D"/>
<stop offset="1" stop-color="#FD3A84"/>
</linearGradient>
<clipPath id="clip0_936_956">
<rect width="48" height="48" fill="white"/>
</clipPath>
</defs>
</svg>
