<svg width="24" height="24" viewBox="0 0 24 24" fill="none" xmlns="http://www.w3.org/2000/svg">
<g clip-path="url(#clip0_747_1206)">
<path d="M9.68598 11.1957C9.68598 11.1957 11.9569 11.0271 11.9569 8.36331C11.9569 5.69982 10.0988 4.40039 7.74497 4.40039H3.41254H3.28528H0V19.2846H3.28528H3.41254H7.74497C7.74497 19.2846 12.473 19.4341 12.473 14.8915C12.4732 14.8915 12.6794 11.1957 9.68598 11.1957ZM3.41254 7.0461H7.18757H7.74522C7.74522 7.0461 8.79815 7.0461 8.79815 8.59454C8.79815 10.143 8.17862 10.3674 7.47667 10.3674H3.41254V7.0461ZM7.54531 16.6396H3.41254V12.6617H7.74497C7.74497 12.6617 9.31421 12.6416 9.31421 14.7059C9.31421 16.4272 8.16659 16.6223 7.54531 16.6396Z" fill="#49505D"/>
<path d="M15.5762 5.27734H21.7173V7.11037H15.5762V5.27734Z" fill="#49505D"/>
<path d="M18.7786 8.1875C13.0548 8.1875 13.0598 13.9058 13.0598 13.9058C13.0598 13.9058 12.6675 19.5958 18.7788 19.5958C18.7788 19.5958 23.8721 19.8869 23.8721 15.6374H21.2527C21.2527 15.6374 21.3401 17.2384 18.8662 17.2384C18.8662 17.2384 16.2471 17.4135 16.2471 14.6481H23.9592C23.9592 14.6481 24.803 8.1875 18.7786 8.1875ZM21.1069 12.6615H16.2175C16.2175 12.6615 16.5374 10.3672 18.8367 10.3672C21.1362 10.367 21.1069 12.6615 21.1069 12.6615Z" fill="#49505D"/>
</g>
<defs>
<clipPath id="clip0_747_1206">
<rect width="24" height="24" fill="white"/>
</clipPath>
</defs>
</svg>
