<svg width="48" height="48" viewBox="0 0 48 48" fill="none" xmlns="http://www.w3.org/2000/svg">
<path d="M36.0011 12C35.9057 12 35.8156 12 35.7255 12C30.3674 12.1219 27.9295 14.3531 23.9865 20.0345L20.6847 15.5456L17.7539 19.5363L18.4005 20.4161L21.0557 24.0306L23.5201 27.38L23.9706 27.9948C27.9666 33.6073 30.3674 35.8703 35.7149 35.9922C35.8103 35.9922 35.9057 35.9922 36.0011 35.9922C42.6259 35.9922 47.9999 30.6182 47.9999 23.9935C47.9999 17.3687 42.6259 12 36.0011 12ZM38.5132 30.8832C33.9342 32.4466 31.1518 29.6748 28.6132 26.3307C28.6132 26.3254 27.0445 24.1948 26.9014 24.0041L30.2296 19.478C31.5705 17.7662 33.6533 16.6691 35.9958 16.6691C40.9034 16.6691 44.6822 21.4866 42.8644 26.6487C42.1595 28.6573 40.5219 30.1995 38.5079 30.8885L38.5132 30.8832Z" fill="url(#paint0_linear_747_1287)"/>
<path d="M18.226 27.8782L17.5741 28.7686C16.2333 30.3373 14.2353 31.3337 12.0094 31.3337C11.1031 31.3337 10.2339 31.1694 9.42835 30.8673C8.43729 30.4963 7.54692 29.9133 6.81025 29.1767C5.4906 27.8464 4.67443 26.0233 4.67443 24.0041C4.67443 19.9603 7.94441 16.6797 11.9882 16.6744H12.0041C13.223 16.6744 14.3784 16.9712 15.3906 17.5012L15.8252 16.9129L18.173 13.7118C16.4241 12.6572 14.389 12.0424 12.216 12C12.1471 12 12.073 12 12.0041 12C10.9176 12 9.86293 12.1431 8.86657 12.4134C3.75756 13.7966 0 18.4605 0 23.9988C0 27.5602 1.55284 30.7666 4.02255 32.9607C4.79632 33.6497 5.66019 34.2433 6.59296 34.715C8.2147 35.5364 10.0537 36.0028 11.9988 36.0028C12.0836 36.0028 12.1736 36.0028 12.2531 36.0028C16.3976 35.918 20.028 33.7292 22.1161 30.4645L19.2224 26.5268L18.226 27.8888V27.8782Z" fill="url(#paint1_linear_747_1287)"/>
<defs>
<linearGradient id="paint0_linear_747_1287" x1="17.7486" y1="23.9988" x2="47.9999" y2="23.9988" gradientUnits="userSpaceOnUse">
<stop stop-color="#EF5147"/>
<stop offset="1" stop-color="#F58C41"/>
</linearGradient>
<linearGradient id="paint1_linear_747_1287" x1="0" y1="12" x2="22.1161" y2="12" gradientUnits="userSpaceOnUse">
<stop stop-color="#EF5147"/>
<stop offset="1" stop-color="#F58C41"/>
</linearGradient>
</defs>
</svg>
