<svg width="24" height="24" viewBox="0 0 24 24" fill="none" xmlns="http://www.w3.org/2000/svg">
<g clip-path="url(#clip0_747_1215)">
<path d="M12 0C5.38313 0 0 5.38313 0 11.9999C0 18.6166 5.38313 23.9997 12 23.9997C18.6169 23.9997 24 18.6166 24 11.9999C24 5.38313 18.6169 0 12 0ZM19.8199 5.65942C21.1671 7.31768 21.9965 9.41074 22.0654 11.6924C19.57 11.1757 17.3103 11.2364 15.3155 11.6275C14.9543 10.7828 14.5804 9.9781 14.203 9.21756C16.3755 8.28169 18.2667 7.08635 19.8199 5.65942ZM18.4681 4.28554C16.9264 5.69282 15.1397 6.73479 13.3102 7.50406C11.9674 5.04852 10.6826 3.19938 9.9 2.14855C10.5777 2.00417 11.2799 1.92672 12 1.92672C14.4607 1.92672 16.7169 2.81481 18.4681 4.28554ZM7.95402 2.77782C8.545 3.54362 9.95267 5.4611 11.4648 8.1892C7.66449 9.42731 3.97701 9.63591 2.20507 9.65531C2.94364 6.56999 5.10427 4.03301 7.95402 2.77782ZM1.93725 11.5869C1.95626 11.5869 1.97463 11.587 1.99403 11.587C3.21839 11.587 5.46161 11.5047 8.1025 11.0232C9.6092 10.7484 11.0379 10.3786 12.3785 9.9203C12.7275 10.6158 13.0745 11.3495 13.4109 12.1186C11.5337 12.7229 9.95074 13.5925 8.69683 14.4559C6.59414 15.9039 5.12109 17.5104 4.31675 18.5037C2.82753 16.7474 1.92672 14.4775 1.92672 11.9999C1.92672 11.8614 1.9316 11.7241 1.93725 11.5869ZM5.70515 19.8556C6.39761 18.9837 7.80707 17.3967 9.84593 16.0042C11.2315 15.0578 12.665 14.3547 14.1407 13.8932C14.9969 16.1125 15.7279 18.5647 16.1638 21.1685C14.8937 21.7475 13.4846 22.073 12 22.073C9.6196 22.073 7.43098 21.2413 5.70515 19.8556ZM17.9364 20.131C17.4872 17.7397 16.8173 15.4912 16.0429 13.4363C17.9478 13.1149 19.9165 13.1812 21.9385 13.6354C21.5025 16.293 20.0236 18.603 17.9364 20.131Z" fill="#49505D"/>
</g>
<defs>
<clipPath id="clip0_747_1215">
<rect width="24" height="24" fill="white"/>
</clipPath>
</defs>
</svg>
