<svg width="24" height="24" viewBox="0 0 24 24" fill="none" xmlns="http://www.w3.org/2000/svg">
<path d="M18.3108 8.24531C19.5333 7.44187 20.3419 6.05859 20.3419 4.49016C20.3419 2.01422 18.3272 0 15.8513 0H8.14688C5.67094 0 3.65625 2.01422 3.65625 4.49016C3.65625 6.05859 4.46484 7.44187 5.68734 8.24531C4.46484 9.04828 3.65625 10.4316 3.65625 12C3.65625 13.5684 4.46484 14.9517 5.68734 15.7552C4.46484 16.5577 3.65625 17.9414 3.65625 19.5098C3.65625 21.9858 5.68172 24 8.17078 24C10.687 24 12.7345 21.9638 12.7345 19.4611V15.3202C13.5323 16.0472 14.5922 16.4902 15.7538 16.4902H15.8513C18.3272 16.4902 20.3419 14.4759 20.3419 12C20.3419 10.4316 19.5333 9.04828 18.3108 8.24531ZM12.7345 1.47094H15.8513C17.5163 1.47094 18.8709 2.82516 18.8709 4.49016C18.8709 6.15516 17.5163 7.50984 15.8513 7.50984H12.7345V1.47094ZM5.12719 4.49016C5.12719 2.82516 6.48188 1.47094 8.14688 1.47094H11.2636V7.50984H8.14688C6.48188 7.50984 5.12719 6.15516 5.12719 4.49016ZM5.12719 12C5.12719 10.335 6.48188 8.98078 8.14688 8.98078H11.2636V15.0197H8.12766C6.47156 15.0094 5.12719 13.6584 5.12719 12ZM11.2636 19.4611C11.2636 21.1528 9.87609 22.5291 8.17078 22.5291C6.49266 22.5291 5.12719 21.1748 5.12719 19.5098C5.12719 17.8448 6.48188 16.4902 8.14688 16.4902H11.2636V19.4611ZM15.8513 15.0197H15.7538C14.0888 15.0197 12.7345 13.665 12.7345 12C12.7345 10.335 14.0888 8.98078 15.7538 8.98078H15.8513C17.5163 8.98078 18.8709 10.335 18.8709 12C18.8709 13.665 17.5163 15.0197 15.8513 15.0197Z" fill="#49505D"/>
</svg>
