<svg width="24" height="24" viewBox="0 0 24 24" fill="none" xmlns="http://www.w3.org/2000/svg">
<path d="M13.5373 11.9997C13.5373 15.7636 10.5069 18.8148 6.76866 18.8148C3.03042 18.8148 0 15.7636 0 11.9997C0 8.23581 3.03042 5.18457 6.76866 5.18457C10.5068 5.18457 13.5373 8.23581 13.5373 11.9997Z" fill="#49505D"/>
<path d="M20.962 11.9992C20.962 15.5423 19.4468 18.4144 17.5777 18.4144C15.7086 18.4144 14.1934 15.5423 14.1934 11.9992C14.1934 8.45616 15.7086 5.58398 17.5777 5.58398C19.4468 5.58398 20.962 8.45616 20.962 11.9992Z" fill="#49505D"/>
<path d="M23.9997 11.9997C23.9997 15.1741 23.4668 17.7475 22.8094 17.7475C22.152 17.7475 21.6191 15.1741 21.6191 11.9997C21.6191 8.8253 22.152 6.25195 22.8094 6.25195C23.4668 6.25195 23.9997 8.8253 23.9997 11.9997Z" fill="#49505D"/>
</svg>
