<svg width="48" height="48" viewBox="0 0 48 48" fill="none" xmlns="http://www.w3.org/2000/svg">
<path d="M44.2728 27.3016C42.8857 27.3016 41.6781 28.0576 41.0337 29.1771L33.4655 26.5572C33.4925 26.4149 33.508 26.2687 33.508 26.1187C33.508 24.8242 32.4566 23.7758 31.1582 23.7758C29.8599 23.7758 28.8085 24.8242 28.8085 26.1187C28.8085 26.6303 28.9744 27.0997 29.2522 27.4844L28.3725 28.3172L23.0383 26.236C23.2061 25.9129 23.3026 25.5474 23.3026 25.1588C23.3026 24.8896 23.2544 24.6298 23.1714 24.3894L26.9044 21.8177C27.1745 22.0139 27.5044 22.1331 27.8632 22.1331C28.7622 22.1331 29.4895 21.4079 29.4895 20.5116C29.4895 20.3616 29.4625 20.2192 29.4239 20.0807L31.5981 18.5823C31.9202 18.8959 32.3582 19.0901 32.8424 19.0901C33.4211 19.0901 33.9305 18.8112 34.2565 18.3861L37.5747 19.6287C37.5728 19.6691 37.5632 19.7095 37.5632 19.7518C37.5632 20.5366 38.2017 21.1733 38.9888 21.1733C39.7759 21.1733 40.4144 20.5366 40.4144 19.7518C40.4144 18.967 39.7759 18.3284 38.9888 18.3284C38.5084 18.3284 38.0859 18.5669 37.8274 18.9305L34.5806 17.7129C34.6114 17.5821 34.6307 17.4474 34.6307 17.307C34.6307 17.0531 34.5767 16.8146 34.4803 16.5972L37.4339 14.5622C37.6422 14.6872 37.8833 14.7622 38.1438 14.7622C38.9097 14.7622 39.529 14.1447 39.529 13.3811C39.529 12.6175 38.9097 12 38.1438 12C37.3779 12 36.7606 12.6175 36.7606 13.3811C36.7606 13.61 36.8223 13.8235 36.9207 14.0139L34.0443 15.9952C33.7259 15.7047 33.3074 15.5239 32.8424 15.5239C31.8547 15.5239 31.056 16.3222 31.056 17.307C31.056 17.5397 31.1023 17.761 31.1852 17.9648L29.0632 19.4267C28.766 19.0978 28.3397 18.8901 27.8612 18.8901C27.2729 18.8901 26.7616 19.2036 26.4761 19.671L24.6935 19.0593C24.7263 18.9073 24.7457 18.7496 24.7457 18.5881C24.7457 18.2938 24.6858 18.013 24.5797 17.7571L26.5976 16.7107C26.8504 16.9877 27.2111 17.1646 27.6181 17.1646C28.384 17.1646 29.0033 16.5472 29.0033 15.7836C29.0033 15.0199 28.384 14.4025 27.6181 14.4025C26.8523 14.4025 26.2331 15.0199 26.2331 15.7836C26.2331 15.874 26.2446 15.9625 26.2601 16.049L24.1804 17.1281C23.7811 16.6857 23.2023 16.4049 22.558 16.4049C21.6859 16.4049 20.9355 16.9146 20.5844 17.6494L18.5279 16.9453C18.5318 16.8973 18.5433 16.853 18.5433 16.805C18.5433 15.7759 17.708 14.943 16.6759 14.943C16.0257 14.943 15.4547 15.2758 15.119 15.7778L12.6728 14.9411C12.6863 14.8622 12.6959 14.7833 12.6959 14.7025C12.6959 13.9177 12.0574 13.2811 11.2703 13.2811C10.4832 13.2811 9.84465 13.9177 9.84465 14.7025C9.84465 15.4873 10.4832 16.124 11.2703 16.124C11.7063 16.124 12.0921 15.924 12.3526 15.6181L14.8393 16.4703C14.82 16.5799 14.8046 16.6915 14.8046 16.8069C14.8046 17.836 15.6399 18.6688 16.672 18.6688C17.3916 18.6688 18.0089 18.2573 18.3215 17.6629L20.3799 18.3669C20.3722 18.44 20.3684 18.5131 20.3684 18.5881C20.3684 18.7554 20.3895 18.9189 20.4242 19.0748L15.9505 21.3945C15.5242 20.8001 14.8277 20.4116 14.0387 20.4116C12.7423 20.4116 11.6889 21.4599 11.6889 22.7544C11.6889 23.0275 11.7391 23.2911 11.8259 23.5334L5.48468 26.8227C4.98116 25.936 4.02815 25.3377 2.93237 25.3377C1.31379 25.3377 0 26.6476 0 28.2615C0 29.8753 1.31186 31.1852 2.93237 31.1852C4.55288 31.1852 5.86472 29.8753 5.86472 28.2615C5.86472 28.0018 5.82806 27.7517 5.7644 27.5132L12.1808 24.1855C12.6111 24.7395 13.2805 25.0973 14.0367 25.0973C15.3351 25.0973 16.3865 24.049 16.3865 22.7544C16.3865 22.5121 16.3498 22.2794 16.2804 22.0581L20.7098 19.7615C21.0995 20.3673 21.7786 20.7694 22.5541 20.7694C23.3296 20.7694 24.0183 20.3596 24.4061 19.746L26.2427 20.375C26.2408 20.4193 26.2291 20.4635 26.2291 20.5097C26.2291 20.777 26.2986 21.0233 26.4144 21.2464L22.8087 23.7296C22.3785 23.1737 21.7072 22.8122 20.947 22.8122C19.6487 22.8122 18.5973 23.8604 18.5973 25.155C18.5973 26.4495 19.6487 27.4978 20.947 27.4978C21.576 27.4978 22.1451 27.2516 22.5676 26.8496L27.7687 28.8809L25.8819 30.6678C25.3013 30.2138 24.572 29.9408 23.7791 29.9408C21.8923 29.9408 20.3644 31.4642 20.3644 33.3473C20.3644 35.2304 21.8923 36.75 23.7791 36.75C25.6658 36.75 27.1938 35.2266 27.1938 33.3473C27.1938 32.5259 26.9024 31.7738 26.4163 31.1852L29.7673 28.0095C30.155 28.2923 30.6316 28.4596 31.1486 28.4596C32.0341 28.4596 32.8019 27.973 33.2032 27.2536L40.7193 29.8541C40.5977 30.2235 40.5283 30.6159 40.5283 31.0237C40.5283 33.0818 42.199 34.7476 44.2632 34.7476C46.3274 34.7476 48 33.0799 48 31.0237C48 28.9674 46.3274 27.2978 44.2632 27.2978L44.2728 27.3016Z" fill="#68CCE8"/>
</svg>
