<svg width="30" height="30" viewBox="0 0 30 30" fill="none" xmlns="http://www.w3.org/2000/svg">
<path d="M27.2385 2.82422H2.76152C1.26855 2.82422 0 4.02891 0 5.58574V24.4143C0 25.3529 0.461133 26.1639 1.15547 26.6602L11.5541 16.2615C11.8975 15.9182 12.4541 15.9182 12.7975 16.2615L15.9416 19.4057L22.851 12.4957C23.0162 12.3311 23.2395 12.2385 23.4727 12.2385C23.7059 12.2385 23.9291 12.3311 24.0943 12.4957L30 18.4014V5.58574C30 4.02891 28.7314 2.82422 27.2385 2.82422ZM7.46895 13.9963C5.42695 13.9963 3.76582 12.3352 3.76582 10.2932C3.76582 8.25117 5.42695 6.59004 7.46895 6.59004C9.51094 6.59004 11.1721 8.25117 11.1721 10.2932C11.1721 12.3352 9.51094 13.9963 7.46895 13.9963ZM7.46895 8.34785C6.39609 8.34785 5.52363 9.22031 5.52363 10.2932C5.52363 11.3654 6.39609 12.2385 7.46895 12.2385C8.54121 12.2385 9.41426 11.3654 9.41426 10.2932C9.41426 9.22031 8.54121 8.34785 7.46895 8.34785ZM23.4727 14.3602L16.5627 21.2701C16.2199 21.6129 15.6633 21.6129 15.3199 21.2701L12.1758 18.126L3.12598 27.1758H27.2385C28.7314 27.1758 30 25.9711 30 24.4143V20.8875L23.4727 14.3602Z" fill="#6C727C"/>
</svg>
