<svg width="30" height="30" viewBox="0 0 30 30" fill="none" xmlns="http://www.w3.org/2000/svg">
<g clip-path="url(#clip0_746_1120)">
<path d="M29.9927 13.0611C29.7885 6.64611 23.9972 0 14.9532 0C10.6797 0 6.77442 1.70227 3.95658 4.77328C1.10448 7.88209 -0.316248 12.0302 0.0647873 16.4531C0.716233 24.0165 7.15463 30 14.6477 30H14.6768C17.0853 29.9944 18.1418 27.6363 16.79 25.9222C15.754 24.6081 16.0432 23.632 16.3514 23.0552C16.8741 22.0775 17.6921 21.6209 18.9272 21.6184C20.0243 21.6184 21.1536 21.6347 22.2351 21.5652C26.9952 21.2622 30.1472 17.9242 29.9927 13.0611ZM3.56694 11.5368C3.56694 10.0828 4.74971 8.90004 6.20365 8.90004C7.6576 8.90004 8.84037 10.0828 8.84037 11.5368C8.84037 12.9907 7.6576 14.1735 6.20365 14.1735C4.74971 14.1735 3.56694 12.9907 3.56694 11.5368ZM7.08256 21.2047C5.62862 21.2047 4.44584 20.022 4.44584 18.568C4.44584 17.1141 5.62862 15.9313 7.08256 15.9313C8.53651 15.9313 9.71928 17.1141 9.71928 18.568C9.71928 20.022 8.53651 21.2047 7.08256 21.2047ZM11.4771 8.90004C10.0231 8.90004 8.84037 7.71727 8.84037 6.26332C8.84037 4.80937 10.0231 3.6266 11.4771 3.6266C12.931 3.6266 14.1138 4.80937 14.1138 6.26332C14.1138 7.71727 12.931 8.90004 11.4771 8.90004ZM18.5083 8.90004C17.0544 8.90004 15.8716 7.71727 15.8716 6.26332C15.8716 4.80937 17.0544 3.6266 18.5083 3.6266C19.9623 3.6266 21.1451 4.80937 21.1451 6.26332C21.1451 7.71727 19.9623 8.90004 18.5083 8.90004ZM23.7818 14.1735C22.3278 14.1735 21.1451 12.9907 21.1451 11.5368C21.1451 10.0828 22.3278 8.90004 23.7818 8.90004C25.2357 8.90004 26.4185 10.0828 26.4185 11.5368C26.4185 12.9907 25.2357 14.1735 23.7818 14.1735Z" fill="#6C727C"/>
</g>
<defs>
<clipPath id="clip0_746_1120">
<rect width="30" height="30" fill="white"/>
</clipPath>
</defs>
</svg>
