<svg width="30" height="30" viewBox="0 0 30 30" fill="none" xmlns="http://www.w3.org/2000/svg">
<path d="M27.6389 26.1853L23.672 18.2227H17.6084C17.2407 19.3113 16.2104 20.0977 14.9992 20.0977C13.788 20.0977 12.7577 19.3113 12.3899 18.2227H6.32641L2.36002 26.1841C1.48252 27.9391 2.7604 30 4.71836 30H25.28C27.2443 30 28.5127 27.933 27.6389 26.1853ZM11.2492 26.1914C9.73065 26.1914 8.49526 24.956 8.49526 23.4375C8.49526 21.919 9.73065 20.6836 11.2492 20.6836C12.7677 20.6836 14.0031 21.919 14.0031 23.4375C14.0031 24.956 12.7677 26.1914 11.2492 26.1914ZM17.749 25.3992C17.6973 25.897 17.254 26.2352 16.7874 26.1873C16.2869 26.1354 15.9514 25.6897 15.9999 25.2264C16.0392 24.7402 16.5067 24.3492 17.0458 24.4506C17.4736 24.5398 17.7882 24.9189 17.749 25.3992ZM18.6865 21.6492C18.6388 22.1085 18.2426 22.4795 17.7255 22.4373C17.2262 22.3865 16.8888 21.9403 16.9369 21.4764C16.9881 20.9727 17.4539 20.601 17.9833 20.7006C18.4494 20.7978 18.7303 21.2217 18.6865 21.6492ZM21.499 23.5242C21.4472 24.023 21.0031 24.3601 20.5374 24.3123C20.0373 24.2604 19.7013 23.8144 19.7494 23.3514C19.8005 22.8487 20.265 22.4757 20.7958 22.5756C21.2637 22.6731 21.5426 23.0989 21.499 23.5242Z" fill="#6C727C"/>
<path d="M9.31557 1.75781H10.3703V10.1057L7.20215 16.4648H12.3899C12.7577 15.3762 13.788 14.5898 14.9992 14.5898C16.2104 14.5898 17.2407 15.3762 17.6084 16.4648H22.7962L19.628 10.1057V1.75781H20.6827C21.1681 1.75781 21.5616 1.3643 21.5616 0.878906C21.5616 0.393516 21.1681 0 20.6827 0C17.9846 0 11.6785 0 9.31551 0C8.83012 0 8.4366 0.393516 8.4366 0.878906C8.4366 1.3643 8.83018 1.75781 9.31557 1.75781Z" fill="#6C727C"/>
<path d="M14.999 18.3398C15.5492 18.3398 15.9951 17.8939 15.9951 17.3438C15.9951 16.7936 15.5492 16.3477 14.999 16.3477C14.4489 16.3477 14.0029 16.7936 14.0029 17.3438C14.0029 17.8939 14.4489 18.3398 14.999 18.3398Z" fill="#6C727C"/>
<path d="M11.2492 24.4336C11.7993 24.4336 12.2453 23.9876 12.2453 23.4375C12.2453 22.8874 11.7993 22.4414 11.2492 22.4414C10.699 22.4414 10.2531 22.8874 10.2531 23.4375C10.2531 23.9876 10.699 24.4336 11.2492 24.4336Z" fill="#6C727C"/>
</svg>
