<svg width="30" height="30" viewBox="0 0 30 30" fill="none" xmlns="http://www.w3.org/2000/svg">
<g clip-path="url(#clip0_746_1126)">
<path d="M29.4962 13.4117L16.0361 1.14696C15.4453 0.608545 14.5544 0.608604 13.9639 1.1469L0.503791 13.4117C0.0305299 13.843 -0.125798 14.5074 0.105413 15.1044C0.336682 15.7014 0.899767 16.0872 1.54002 16.0872H3.68982V28.3755C3.68982 28.8627 4.08486 29.2577 4.57206 29.2577H11.9498C12.437 29.2577 12.8321 28.8628 12.8321 28.3755V20.9144H17.1681V28.3755C17.1681 28.8628 17.5632 29.2578 18.0504 29.2578H25.4278C25.915 29.2578 26.31 28.8628 26.31 28.3755V16.0872H28.4602C29.1004 16.0872 29.6636 15.7014 29.8948 15.1044C30.1257 14.5074 29.9694 13.843 29.4962 13.4117Z" fill="#6C727C"/>
</g>
<defs>
<clipPath id="clip0_746_1126">
<rect width="30" height="30" fill="white"/>
</clipPath>
</defs>
</svg>
