<svg width="24" height="24" viewBox="0 0 24 24" fill="none" xmlns="http://www.w3.org/2000/svg">
<g clip-path="url(#clip0_747_1170)">
<path d="M4.91602 7.84668H0.712406C0.318984 7.84668 0 8.16566 0 8.55909V22.824C0 23.2174 0.318984 23.5364 0.712406 23.5364H4.91606C5.30948 23.5364 5.62847 23.2174 5.62847 22.824V8.55909C5.62842 8.16566 5.30948 7.84668 4.91602 7.84668ZM4.20366 22.1116H1.42481V9.27149H4.20366V22.1116Z" fill="#49505D"/>
<path d="M22.2549 10.141C21.0231 8.64004 19.2933 7.84668 17.2524 7.84668C16.1473 7.84668 15.17 8.07909 14.3313 8.53949C14.3209 8.15512 14.0061 7.84668 13.6192 7.84668H9.41553C9.02211 7.84668 8.70312 8.16566 8.70312 8.55909V22.8239C8.70312 23.2174 9.02211 23.5364 9.41553 23.5364H13.6192C14.0126 23.5364 14.3316 23.2174 14.3316 22.8239V15.4951C14.3316 14.3813 15.2378 13.4751 16.3516 13.4751C17.4654 13.4751 18.3717 14.3813 18.3717 15.4951V22.8239C18.3717 23.2174 18.6906 23.5364 19.0841 23.5364H23.2877C23.6811 23.5364 24.0001 23.2174 24.0001 22.8239V15.4951C24.0001 13.4137 23.3803 11.5122 22.2549 10.141ZM22.5753 22.1115H19.7964V15.4951C19.7964 13.5956 18.251 12.0503 16.3515 12.0503C14.4521 12.0503 12.9067 13.5956 12.9067 15.4951V22.1115H10.1279V9.2714H12.9067V9.96759C12.9067 10.257 13.0819 10.5178 13.3499 10.6272C13.6179 10.7365 13.9254 10.6729 14.128 10.4661C14.9047 9.6734 15.9559 9.2714 17.2523 9.2714C20.9293 9.2714 22.5752 12.3972 22.5752 15.4951V22.1115H22.5753Z" fill="#49505D"/>
<path d="M2.81423 0.463867C1.26248 0.463867 0 1.7263 0 3.27805C0 4.8298 1.26248 6.09224 2.81423 6.09224C4.36598 6.09224 5.62847 4.8298 5.62847 3.27805C5.62842 1.7263 4.36598 0.463867 2.81423 0.463867ZM2.81423 4.66748C2.04811 4.66748 1.42481 4.04423 1.42481 3.27805C1.42481 2.51188 2.04811 1.88863 2.81423 1.88863C3.58036 1.88863 4.20366 2.51193 4.20366 3.27805C4.20366 4.04418 3.58031 4.66748 2.81423 4.66748Z" fill="#49505D"/>
</g>
<defs>
<clipPath id="clip0_747_1170">
<rect width="24" height="24" fill="white"/>
</clipPath>
</defs>
</svg>
