<svg width="48" height="48" viewBox="0 0 48 48" fill="none" xmlns="http://www.w3.org/2000/svg">
<g clip-path="url(#clip0_747_1272)">
<path d="M23.9922 47.989C37.2427 47.989 47.9844 37.2463 47.9844 23.9945C47.9844 10.7427 37.2427 0 23.9922 0C10.7417 0 0 10.7427 0 23.9945C0 37.2463 10.7417 47.989 23.9922 47.989Z" fill="url(#paint0_linear_747_1272)"/>
<path opacity="0.6" d="M28.9113 34.8872C27.8677 34.8872 26.8573 34.2988 26.3689 33.2994L19.9406 20.1419C19.2522 18.7318 19.8407 17.044 21.2396 16.3556C22.6496 15.6672 24.3372 16.2557 25.0254 17.6547L31.4537 30.8123C32.1421 32.2224 31.5536 33.9101 30.1547 34.5986C29.7551 34.7984 29.3332 34.8872 28.9113 34.8872Z" fill="white"/>
<path opacity="0.6" d="M17.7196 31.5001C16.6759 31.5001 15.6656 30.9116 15.1771 29.9123L11.1359 21.6292C10.4475 20.219 11.036 18.5313 12.4348 17.843C13.8448 17.1545 15.5324 17.743 16.2207 19.142L20.2619 27.4252C20.9503 28.8353 20.362 30.523 18.963 31.2115C18.5633 31.4113 18.1415 31.5001 17.7196 31.5001Z" fill="white"/>
<path d="M28.9107 34.887C28.4887 34.887 28.0669 34.7982 27.6672 34.5984C26.2572 33.9099 25.6799 32.211 26.3683 30.8121L33.7957 15.5893C34.4841 14.1792 36.1827 13.6018 37.5817 14.2901C38.9916 14.9786 39.5689 16.6775 38.8806 18.0765L31.4531 33.2992C30.9646 34.3096 29.9543 34.887 28.9107 34.887Z" fill="white"/>
<path d="M17.7075 31.5007C17.2857 31.5007 16.8638 31.4118 16.4641 31.212C15.0541 30.5236 14.4768 28.8247 15.1652 27.4258L19.9392 17.6547C20.6275 16.2446 22.3262 15.6672 23.7251 16.3556C25.1351 17.044 25.7124 18.7429 25.024 20.1419L20.25 29.9129C19.7616 30.9233 18.7512 31.5007 17.7075 31.5007Z" fill="white"/>
</g>
<defs>
<linearGradient id="paint0_linear_747_1272" x1="36.8709" y1="45.1132" x2="10.6769" y2="2.14515" gradientUnits="userSpaceOnUse">
<stop stop-color="#07B7B1"/>
<stop offset="1" stop-color="#0BB8E2"/>
</linearGradient>
<clipPath id="clip0_747_1272">
<rect width="48" height="48" fill="white"/>
</clipPath>
</defs>
</svg>
